<svg version="1.1" id="Layer_1" xmlns="http://www.w3.org/2000/svg" xmlns:xlink="http://www.w3.org/1999/xlink" x="0px" y="0px"
	 width="100%" viewBox="0 0 768 768" enable-background="new 0 0 768 768" xml:space="preserve">
<path fill="#FFFFFF" opacity="1.000000" stroke="none" 
	d="
M466.000000,769.000000 
	C310.666656,769.000000 155.833328,769.000000 1.000000,769.000000 
	C1.000000,513.000000 1.000000,257.000000 1.000000,1.000000 
	C257.000000,1.000000 513.000000,1.000000 769.000000,1.000000 
	C769.000000,257.000000 769.000000,513.000000 769.000000,769.000000 
	C668.166687,769.000000 567.333313,769.000000 466.000000,769.000000 
M649.023560,167.988007 
	C649.023560,152.404068 649.023560,136.820145 649.023560,121.242325 
	C568.674194,121.242325 489.086975,121.242325 409.304779,121.242325 
	C409.304779,145.198807 409.304779,168.912216 409.304779,193.172394 
	C465.318054,193.172394 521.028931,193.172394 576.750610,193.172394 
	C576.750610,201.320938 576.750610,208.919067 576.750610,217.072403 
	C568.789612,217.072403 561.062073,217.072403 552.797241,217.072403 
	C552.797241,233.346008 552.797241,249.068634 552.797241,265.156342 
	C544.641357,265.156342 537.037415,265.156342 528.890137,265.156342 
	C528.890137,281.250946 528.890137,296.973907 528.890137,313.240173 
	C520.614868,313.240173 512.884644,313.240173 504.806244,313.240173 
	C504.806244,329.396515 504.806244,344.997162 504.806244,361.147278 
	C496.712036,361.147278 488.982880,361.147278 480.899170,361.147278 
	C480.899170,377.302063 480.899170,392.902832 480.899170,409.054382 
	C472.809204,409.054382 465.081024,409.054382 456.815369,409.054382 
	C456.815369,425.327332 456.815369,441.049957 456.815369,457.138184 
	C448.660004,457.138184 441.055603,457.138184 432.908295,457.138184 
	C432.908295,473.232269 432.908295,488.955139 432.908295,505.221985 
	C424.633881,505.221985 416.906372,505.221985 409.274109,505.221985 
	C409.274109,537.375916 409.274109,568.970642 409.274109,601.130615 
	C425.332031,601.130615 441.120209,601.130615 456.973114,602.047241 
	C456.973114,617.609863 456.973114,633.172485 456.973114,648.648804 
	C537.446350,648.648804 616.974609,648.648804 696.532471,648.648804 
	C696.532471,624.619568 696.532471,600.944458 696.532471,576.908142 
	C680.421143,576.908142 664.775818,576.908142 649.023560,575.987976 
	C649.023560,560.424622 649.023560,544.861267 649.023560,528.869385 
	C616.579285,528.869385 584.835388,528.869385 553.026794,527.952820 
	C553.026794,520.502136 553.026794,513.051514 553.026794,504.880157 
	C561.270508,504.880157 568.980225,504.880157 577.206299,504.880157 
	C577.206299,488.577759 577.206299,473.001984 577.206299,456.884003 
	C585.330078,456.884003 592.909119,456.884003 601.204712,456.884003 
	C601.204712,440.645355 601.204712,424.949036 601.204712,408.715118 
	C609.512329,408.715118 617.092224,408.715118 625.198608,408.715118 
	C625.198608,392.585632 625.198608,377.009857 625.198608,360.891693 
	C633.322144,360.891693 640.901062,360.891693 649.195557,360.891693 
	C649.195557,344.650604 649.195557,328.953705 649.195557,312.720215 
	C657.502808,312.720215 665.083313,312.720215 673.190918,312.720215 
	C673.190918,296.593506 673.190918,281.017761 673.190918,264.899384 
	C681.314087,264.899384 688.892883,264.899384 696.544189,264.899384 
	C696.544189,232.656067 696.544189,200.970139 696.544189,168.908218 
	C680.436890,168.908218 664.783752,168.908218 649.023560,167.988007 
M193.026840,527.952759 
	C193.026840,496.403961 193.026840,464.855164 193.026840,432.801697 
	C241.427399,432.801697 288.972015,432.801697 336.530151,432.801697 
	C336.530151,408.613281 336.530151,384.940582 336.530151,360.908325 
	C320.418060,360.908325 304.774323,360.908325 289.023651,359.988098 
	C289.023651,344.424713 289.023651,328.861298 289.023651,312.869385 
	C256.579315,312.869385 224.835449,312.869385 193.026855,311.952728 
	C193.026855,288.398163 193.026855,264.843597 193.026855,240.794281 
	C249.437302,240.794281 304.976654,240.794281 360.530151,240.794281 
	C360.530151,216.613251 360.530151,192.940552 360.530151,168.908310 
	C344.418152,168.908310 328.774353,168.908310 313.023651,167.988098 
	C313.023651,152.404160 313.023651,136.820221 313.023651,121.242279 
	C232.674240,121.242279 153.087036,121.242279 73.274147,121.242279 
	C73.274147,281.177582 73.274147,440.870514 73.274147,601.130615 
	C89.332375,601.130615 105.120399,601.130615 120.973137,602.047241 
	C120.973137,617.609802 120.973137,633.172424 120.973137,648.648804 
	C201.447021,648.648804 280.975616,648.648804 360.532471,648.648804 
	C360.532471,624.619568 360.532471,600.944458 360.532471,576.908264 
	C344.421265,576.908264 328.775909,576.908264 313.023621,575.988037 
	C313.023621,560.421326 313.023621,544.854614 313.023621,529.000000 
	C310.342133,529.000000 308.365265,529.001953 306.388367,528.999695 
	C268.622772,528.956604 230.857178,528.912903 193.026840,527.952759 
z"/>
<path fill="#3889EA" opacity="1.000000" stroke="none" 
	d="
M120.908424,601.130615 
	C105.120399,601.130615 89.332375,601.130615 73.274147,601.130615 
	C73.274147,440.870514 73.274147,281.177582 73.274147,121.242279 
	C153.087036,121.242279 232.674240,121.242279 313.023651,121.242279 
	C313.023651,136.820221 313.023651,152.404160 313.030823,168.921249 
	C313.038025,177.442703 313.038025,185.031006 313.038025,193.257599 
	C256.572968,193.257599 200.914139,193.257599 145.368225,193.257599 
	C145.368225,233.467484 145.368225,273.016724 145.368225,312.869385 
	C161.519638,312.869385 177.305603,312.869385 193.091568,312.869385 
	C224.835449,312.869385 256.579315,312.869385 289.023651,312.869385 
	C289.023651,328.861298 289.023651,344.424713 289.030823,360.921265 
	C289.037994,369.442688 289.037994,377.031006 289.037994,385.087646 
	C240.684906,385.087646 193.138504,385.087646 145.368210,385.087646 
	C145.368210,433.239929 145.368210,480.901917 145.368210,528.869385 
	C161.519623,528.869385 177.305603,528.869385 193.091583,528.869385 
	C230.857178,528.912903 268.622772,528.956604 306.388367,528.999695 
	C308.365265,529.001953 310.342133,529.000000 313.023621,529.000000 
	C313.023621,544.854614 313.023621,560.421326 313.030792,576.921265 
	C313.037964,585.445007 313.037964,593.035583 313.037964,601.000000 
	C310.417999,601.000000 308.611267,601.000000 306.804535,601.000000 
	C280.152039,601.000000 253.499542,600.983521 226.847061,601.003967 
	C191.534164,601.031067 156.221298,601.087036 120.908424,601.130615 
z"/>
<path fill="#3889EA" opacity="1.000000" stroke="none" 
	d="
M456.908386,601.130615 
	C441.120209,601.130615 425.332031,601.130615 409.274109,601.130615 
	C409.274109,568.970642 409.274109,537.375916 409.274109,505.221985 
	C416.906372,505.221985 424.633881,505.221985 432.908295,505.221985 
	C432.908295,488.955139 432.908295,473.232269 432.908295,457.138184 
	C441.055603,457.138184 448.660004,457.138184 456.815369,457.138184 
	C456.815369,441.049957 456.815369,425.327332 456.815369,409.054382 
	C465.081024,409.054382 472.809204,409.054382 480.899170,409.054382 
	C480.899170,392.902832 480.899170,377.302063 480.899170,361.147278 
	C488.982880,361.147278 496.712036,361.147278 504.806244,361.147278 
	C504.806244,344.997162 504.806244,329.396515 504.806244,313.240173 
	C512.884644,313.240173 520.614868,313.240173 528.890137,313.240173 
	C528.890137,296.973907 528.890137,281.250946 528.890137,265.156342 
	C537.037415,265.156342 544.641357,265.156342 552.797241,265.156342 
	C552.797241,249.068634 552.797241,233.346008 552.797241,217.072403 
	C561.062073,217.072403 568.789612,217.072403 576.750610,217.072403 
	C576.750610,208.919067 576.750610,201.320938 576.750610,193.172394 
	C521.028931,193.172394 465.318054,193.172394 409.304779,193.172394 
	C409.304779,168.912216 409.304779,145.198807 409.304779,121.242325 
	C489.086975,121.242325 568.674194,121.242325 649.023560,121.242325 
	C649.023560,136.820145 649.023560,152.404068 649.030762,168.921173 
	C649.037964,185.442184 649.037964,201.030014 649.037964,217.141327 
	C640.645203,217.141327 633.062927,217.141327 624.785400,217.141327 
	C624.785400,233.362778 624.785400,249.060989 624.785400,265.278564 
	C616.495422,265.278564 608.912598,265.278564 600.822876,265.278564 
	C600.822876,281.390472 600.822876,296.969727 600.822876,313.071228 
	C592.717529,313.071228 585.135193,313.071228 576.857971,313.071228 
	C576.857971,329.294586 576.857971,344.996643 576.857971,361.212891 
	C568.571533,361.212891 560.989136,361.212891 552.893066,361.212891 
	C552.893066,377.318848 552.893066,392.898712 552.893066,409.177826 
	C544.669312,409.177826 536.959106,409.177826 528.751343,409.177826 
	C528.751343,425.463501 528.751343,441.042938 528.751343,457.142822 
	C520.643799,457.142822 513.061401,457.142822 504.783508,457.142822 
	C504.783508,473.364624 504.783508,489.064026 504.783508,505.279663 
	C496.494171,505.279663 488.909790,505.279663 481.357452,505.279663 
	C481.357452,513.400208 481.357452,520.976196 481.357452,528.869385 
	C505.505707,528.869385 529.298645,528.869385 553.091553,528.869385 
	C584.835388,528.869385 616.579285,528.869385 649.023560,528.869385 
	C649.023560,544.861267 649.023560,560.424622 649.030762,576.921143 
	C649.037964,585.444885 649.037964,593.035522 649.037964,601.000000 
	C646.417908,601.000000 644.611206,601.000000 642.804443,601.000000 
	C616.151978,601.000000 589.499451,600.983582 562.846985,601.004028 
	C527.534119,601.031128 492.221252,601.087097 456.908386,601.130615 
z"/>
<path fill="#99D9EA" opacity="1.000000" stroke="none" 
	d="
M553.059204,528.411133 
	C529.298645,528.869385 505.505707,528.869385 481.357452,528.869385 
	C481.357452,520.976196 481.357452,513.400208 481.357452,505.279663 
	C488.909790,505.279663 496.494171,505.279663 504.783508,505.279663 
	C504.783508,489.064026 504.783508,473.364624 504.783508,457.142822 
	C513.061401,457.142822 520.643799,457.142822 528.751343,457.142822 
	C528.751343,441.042938 528.751343,425.463501 528.751343,409.177826 
	C536.959106,409.177826 544.669312,409.177826 552.893066,409.177826 
	C552.893066,392.898712 552.893066,377.318848 552.893066,361.212891 
	C560.989136,361.212891 568.571533,361.212891 576.857971,361.212891 
	C576.857971,344.996643 576.857971,329.294586 576.857971,313.071228 
	C585.135193,313.071228 592.717529,313.071228 600.822876,313.071228 
	C600.822876,296.969727 600.822876,281.390472 600.822876,265.278564 
	C608.912598,265.278564 616.495422,265.278564 624.785400,265.278564 
	C624.785400,249.060989 624.785400,233.362778 624.785400,217.141327 
	C633.062927,217.141327 640.645203,217.141327 649.037964,217.141327 
	C649.037964,201.030014 649.037964,185.442184 649.084229,169.381287 
	C664.783752,168.908218 680.436890,168.908218 696.544189,168.908218 
	C696.544189,200.970139 696.544189,232.656067 696.544189,264.899384 
	C688.892883,264.899384 681.314087,264.899384 673.190918,264.899384 
	C673.190918,281.017761 673.190918,296.593506 673.190918,312.720215 
	C665.083313,312.720215 657.502808,312.720215 649.195557,312.720215 
	C649.195557,328.953705 649.195557,344.650604 649.195557,360.891693 
	C640.901062,360.891693 633.322144,360.891693 625.198608,360.891693 
	C625.198608,377.009857 625.198608,392.585632 625.198608,408.715118 
	C617.092224,408.715118 609.512329,408.715118 601.204712,408.715118 
	C601.204712,424.949036 601.204712,440.645355 601.204712,456.884003 
	C592.909119,456.884003 585.330078,456.884003 577.206299,456.884003 
	C577.206299,473.001984 577.206299,488.577759 577.206299,504.880157 
	C568.980225,504.880157 561.270508,504.880157 553.026794,504.880157 
	C553.026794,513.051514 553.026794,520.502136 553.059204,528.411133 
z"/>
<path fill="#99D9EA" opacity="1.000000" stroke="none" 
	d="
M193.059204,312.411072 
	C177.305603,312.869385 161.519638,312.869385 145.368225,312.869385 
	C145.368225,273.016724 145.368225,233.467484 145.368225,193.257599 
	C200.914139,193.257599 256.572968,193.257599 313.038025,193.257599 
	C313.038025,185.031006 313.038025,177.442703 313.084290,169.381348 
	C328.774353,168.908310 344.418152,168.908310 360.530151,168.908310 
	C360.530151,192.940552 360.530151,216.613251 360.530151,240.794281 
	C304.976654,240.794281 249.437302,240.794281 193.026855,240.794281 
	C193.026855,264.843597 193.026855,288.398163 193.059204,312.411072 
z"/>
<path fill="#99D9EA" opacity="1.000000" stroke="none" 
	d="
M193.059204,528.411072 
	C177.305603,528.869385 161.519623,528.869385 145.368210,528.869385 
	C145.368210,480.901917 145.368210,433.239929 145.368210,385.087646 
	C193.138504,385.087646 240.684906,385.087646 289.037994,385.087646 
	C289.037994,377.031006 289.037994,369.442688 289.084290,361.381348 
	C304.774323,360.908325 320.418060,360.908325 336.530151,360.908325 
	C336.530151,384.940582 336.530151,408.613281 336.530151,432.801697 
	C288.972015,432.801697 241.427399,432.801697 193.026840,432.801697 
	C193.026840,464.855164 193.026840,496.403961 193.059204,528.411072 
z"/>
<path fill="#99D9EA" opacity="1.000000" stroke="none" 
	d="
M120.940781,601.588867 
	C156.221298,601.087036 191.534164,601.031067 226.847061,601.003967 
	C253.499542,600.983521 280.152039,601.000000 306.804535,601.000000 
	C308.611267,601.000000 310.417999,601.000000 313.037964,601.000000 
	C313.037964,593.035583 313.037964,585.445007 313.084259,577.381348 
	C328.775909,576.908264 344.421265,576.908264 360.532471,576.908264 
	C360.532471,600.944458 360.532471,624.619568 360.532471,648.648804 
	C280.975616,648.648804 201.447021,648.648804 120.973137,648.648804 
	C120.973137,633.172424 120.973137,617.609802 120.940781,601.588867 
z"/>
<path fill="#99D9EA" opacity="1.000000" stroke="none" 
	d="
M456.940735,601.588928 
	C492.221252,601.087097 527.534119,601.031128 562.846985,601.004028 
	C589.499451,600.983582 616.151978,601.000000 642.804443,601.000000 
	C644.611206,601.000000 646.417908,601.000000 649.037964,601.000000 
	C649.037964,593.035522 649.037964,585.444885 649.084229,577.381226 
	C664.775818,576.908142 680.421143,576.908142 696.532471,576.908142 
	C696.532471,600.944458 696.532471,624.619568 696.532471,648.648804 
	C616.974609,648.648804 537.446350,648.648804 456.973114,648.648804 
	C456.973114,633.172485 456.973114,617.609863 456.940735,601.588928 
z"/>
</svg>