<svg version="1.1" id="Layer_1" xmlns="http://www.w3.org/2000/svg" xmlns:xlink="http://www.w3.org/1999/xlink" x="0px" y="0px"
	 width="100%" viewBox="0 0 61 61" enable-background="new 0 0 61 61" xml:space="preserve">
<path fill="#FFFFFF" opacity="0.000000" stroke="none" 
	d="
M39.000156,62.000000 
	C26.000101,62.000000 13.500102,62.000000 1.000078,62.000000 
	C1.000052,41.666702 1.000052,21.333406 1.000026,1.000083 
	C21.333294,1.000056 41.666588,1.000056 61.999908,1.000028 
	C61.999939,21.333292 61.999939,41.666584 61.999969,61.999939 
	C54.500072,62.000000 47.000141,62.000000 39.000156,62.000000 
M10.568164,10.999851 
	C8.139265,10.999851 5.710366,10.999851 3.356082,10.999851 
	C3.356082,25.024609 3.356082,38.404343 3.356082,51.611778 
	C12.435771,51.611778 21.155052,51.611778 29.746477,51.611778 
	C29.746477,49.282215 29.746477,47.343758 29.746477,44.908737 
	C23.440329,44.908737 17.370932,44.908737 11.346343,44.908737 
	C11.346343,41.338894 11.346343,38.285557 11.346343,34.746147 
	C16.415754,34.746147 21.147547,34.746147 25.602709,34.746147 
	C25.602709,32.197144 25.602709,30.154943 25.602709,29.288988 
	C20.456757,28.752968 15.847023,28.272802 11.383476,27.807863 
	C11.383476,24.267870 11.383476,21.215515 11.383476,17.846745 
	C17.705877,17.846745 23.649565,17.846745 29.715672,17.846745 
	C29.715672,15.456133 29.715672,13.404058 29.715672,10.999850 
	C23.475794,10.999850 17.512430,10.999850 10.568164,10.999851 
M53.990746,27.514275 
	C57.042294,22.516161 62.042583,18.157473 59.508030,11.369788 
	C50.589691,11.369788 41.861790,11.369788 33.240479,11.369788 
	C33.240479,13.685311 33.240479,15.628507 33.240479,17.861115 
	C39.081646,17.861115 44.695522,17.861115 50.707600,17.861115 
	C50.230007,19.135180 50.064976,20.137373 49.539787,20.887363 
	C45.424892,26.763632 41.352051,32.675152 37.040009,38.405563 
	C34.067223,42.356194 31.818092,46.343910 33.437481,51.743553 
	C42.097931,51.743553 50.831337,51.743553 59.721119,51.743553 
	C59.721119,49.469765 59.721119,47.416550 59.721119,45.057129 
	C54.191025,45.057129 48.928406,45.057129 42.986935,45.057129 
	C46.698387,39.036266 50.085758,33.541142 53.990746,27.514275 
z"/>
<path fill="#000000" opacity="1.000000" stroke="none" 
	d="
M11.058617,10.999851 
	C17.512430,10.999850 23.475794,10.999850 29.715672,10.999850 
	C29.715672,13.404058 29.715672,15.456133 29.715672,17.846745 
	C23.649565,17.846745 17.705877,17.846745 11.383476,17.846745 
	C11.383476,21.215515 11.383476,24.267870 11.383476,27.807863 
	C15.847023,28.272802 20.456757,28.752968 25.602709,29.288988 
	C25.602709,30.154943 25.602709,32.197144 25.602709,34.746147 
	C21.147547,34.746147 16.415754,34.746147 11.346343,34.746147 
	C11.346343,38.285557 11.346343,41.338894 11.346343,44.908737 
	C17.370932,44.908737 23.440329,44.908737 29.746477,44.908737 
	C29.746477,47.343758 29.746477,49.282215 29.746477,51.611778 
	C21.155052,51.611778 12.435771,51.611778 3.356082,51.611778 
	C3.356082,38.404343 3.356082,25.024609 3.356082,10.999851 
	C5.710366,10.999851 8.139265,10.999851 11.058617,10.999851 
z"/>
<path fill="#000000" opacity="1.000000" stroke="none" 
	d="
M53.731937,27.780148 
	C50.085758,33.541142 46.698387,39.036266 42.986935,45.057129 
	C48.928406,45.057129 54.191025,45.057129 59.721119,45.057129 
	C59.721119,47.416550 59.721119,49.469765 59.721119,51.743553 
	C50.831337,51.743553 42.097931,51.743553 33.437481,51.743553 
	C31.818092,46.343910 34.067223,42.356194 37.040009,38.405563 
	C41.352051,32.675152 45.424892,26.763632 49.539787,20.887363 
	C50.064976,20.137373 50.230007,19.135180 50.707600,17.861115 
	C44.695522,17.861115 39.081646,17.861115 33.240479,17.861115 
	C33.240479,15.628507 33.240479,13.685311 33.240479,11.369788 
	C41.861790,11.369788 50.589691,11.369788 59.508030,11.369788 
	C62.042583,18.157473 57.042294,22.516161 53.731937,27.780148 
z"/>
</svg>