<svg version="1.1" id="Layer_1" xmlns="http://www.w3.org/2000/svg" xmlns:xlink="http://www.w3.org/1999/xlink" x="0px" y="0px"
	 width="100%" viewBox="0 0 512 512" enable-background="new 0 0 512 512" xml:space="preserve">
<path fill="#FFFFFF" opacity="1.000000" stroke="none" 
	d="
M513.000000,73.000000 
	C513.000000,195.355972 513.000000,317.711945 512.750122,440.545288 
	C512.340576,441.070648 512.180908,441.118622 511.594299,441.094849 
	C509.439484,441.070892 507.711548,441.118744 505.727112,441.134521 
	C505.369232,441.395233 505.267944,441.688049 505.094604,442.444458 
	C505.022552,447.516663 505.022552,452.125305 505.022552,456.813660 
	C502.017670,456.971954 499.612549,457.098633 496.757782,457.248993 
	C496.757782,462.739838 496.757782,467.817566 496.757782,473.158264 
	C493.987976,473.158264 491.702484,473.158264 488.952576,473.158264 
	C488.952576,475.838593 488.952576,478.255951 488.952576,480.787842 
	C486.082886,480.957001 483.669006,481.099274 481.161713,481.247070 
	C481.026154,483.994598 480.907166,486.406555 480.788605,488.809540 
	C477.927948,488.972748 475.517242,489.110291 472.845398,489.262756 
	C472.845398,492.016296 472.845398,494.296448 472.845398,497.048401 
	C467.486084,497.048401 462.404602,497.048401 457.213989,497.048401 
	C457.041290,499.923401 456.896759,502.329437 456.726349,505.166626 
	C451.592224,505.166626 446.787933,505.166626 441.727051,505.134521 
	C441.369202,505.395233 441.267914,505.688049 441.094818,506.407684 
	C441.070892,508.562103 441.118744,510.289734 441.094727,512.257874 
	C441.015228,512.665588 441.007599,512.832825 441.000000,513.000000 
	C318.644043,513.000000 196.288055,513.000000 73.466042,512.546326 
	C73.000000,509.831268 73.000000,507.569885 73.000000,504.848999 
	C67.362869,504.848999 62.291756,504.848999 57.177177,504.848999 
	C57.027611,501.978485 56.902454,499.576447 56.754223,496.731506 
	C51.234638,496.731506 46.168751,496.731506 40.836708,496.731506 
	C40.836708,493.968719 40.836708,491.682831 40.836708,488.949463 
	C38.148636,488.949463 35.746048,488.949463 33.215511,488.949463 
	C33.045078,486.084198 32.901787,483.675110 32.752430,481.164154 
	C30.019190,481.026794 27.609917,480.905731 25.172377,480.783264 
	C25.026537,477.951111 24.902552,475.543396 24.765257,472.877228 
	C22.012810,472.877228 19.735168,472.877228 16.992420,472.877228 
	C16.992420,467.531403 16.992420,462.455505 16.992420,456.927979 
	C14.137929,456.927979 11.729090,456.927979 8.887492,456.927979 
	C8.887492,451.391846 8.887492,446.315857 8.887492,441.000000 
	C5.949686,441.000000 3.474843,441.000000 1.000000,441.000000 
	C1.000000,318.644043 1.000000,196.288055 1.453658,73.466042 
	C4.168721,73.000000 6.430125,73.000000 9.151025,73.000000 
	C9.151025,67.362854 9.151025,62.291733 9.151025,57.177189 
	C12.021507,57.027618 14.423556,56.902458 17.268515,56.754219 
	C17.268515,51.234619 17.268515,46.168732 17.268515,40.836685 
	C20.029030,40.836685 22.309881,40.836685 25.050543,40.836685 
	C25.050543,38.148605 25.050543,35.746017 25.050543,33.215500 
	C27.915838,33.045078 30.324911,32.901791 32.835835,32.752449 
	C32.973259,30.017927 33.094303,27.609413 33.216774,25.172390 
	C36.048901,25.026541 38.456627,24.902546 41.122791,24.765244 
	C41.122791,22.013489 41.122791,19.735432 41.122791,16.992418 
	C46.468639,16.992418 51.544487,16.992418 57.072021,16.992418 
	C57.072021,14.131039 57.072021,11.734606 57.072021,8.887487 
	C62.606293,8.887487 67.682831,8.887487 73.000000,8.887487 
	C73.000000,5.949684 73.000000,3.474842 73.000000,1.000000 
	C195.355972,1.000000 317.711945,1.000000 440.533966,1.453659 
	C441.000000,4.168721 441.000000,6.430124 441.000000,9.151015 
	C446.635010,9.151015 451.707001,9.151015 456.822754,9.151015 
	C456.972351,12.021475 457.097717,14.427566 457.245758,17.268501 
	C462.765381,17.268501 467.831268,17.268501 473.163330,17.268501 
	C473.163330,20.029039 473.163330,22.309896 473.163330,25.050568 
	C475.851410,25.050568 478.253998,25.050568 480.784546,25.050568 
	C480.954956,27.915861 481.098206,30.324928 481.247528,32.835846 
	C483.982086,32.973267 486.390594,33.094303 488.827698,33.216774 
	C488.973511,36.048927 489.097473,38.456650 489.234741,41.122814 
	C491.987213,41.122814 494.264862,41.122814 497.007599,41.122814 
	C497.007599,46.469822 497.007599,51.546837 497.007599,57.072041 
	C499.868988,57.072041 502.265411,57.072041 505.112549,57.072041 
	C505.112549,62.608173 505.112549,67.684181 505.112549,73.000000 
	C508.050323,73.000000 510.525177,73.000000 513.000000,73.000000 
M60.500000,81.000000 
	C46.070663,81.000000 31.641325,81.000000 17.280708,81.000000 
	C17.280708,198.638916 17.280708,315.703674 17.280708,432.721680 
	C91.962494,432.721680 166.363235,432.721680 240.719177,432.721680 
	C240.719177,411.371094 240.719177,390.300018 240.719177,368.835571 
	C187.369675,368.835571 134.299820,368.835571 81.282387,368.835571 
	C81.282387,342.034302 81.282387,315.630341 81.282387,288.831421 
	C123.967529,288.831421 166.371704,288.831421 208.714600,288.831421 
	C208.714600,267.361816 208.714600,246.290710 208.714600,224.825409 
	C166.026398,224.825409 123.622231,224.825409 81.287949,224.825409 
	C81.287949,198.023087 81.287949,171.619064 81.287949,144.821289 
	C134.644669,144.821289 187.714508,144.821289 240.710007,144.821289 
	C240.710007,123.352554 240.710007,102.281387 240.710007,81.000000 
	C180.780182,81.000000 121.140091,81.000000 60.500000,81.000000 
M326.500000,145.000000 
	C356.485199,145.000000 386.470398,145.000000 416.581879,145.000000 
	C416.342560,145.854431 416.300171,146.705734 415.901062,147.328384 
	C405.559814,163.462219 395.208191,179.589539 384.802979,195.682190 
	C370.637543,217.590347 356.374725,239.435654 342.246887,261.367950 
	C321.327332,293.843750 300.381195,326.303711 279.731995,358.951050 
	C276.571777,363.947449 272.538391,368.504974 272.792145,375.593292 
	C273.423645,393.233917 272.994507,410.912323 273.010254,428.575562 
	C273.011536,430.004913 273.158203,431.434143 273.228027,432.695557 
	C348.026276,432.695557 422.421448,432.695557 496.695496,432.695557 
	C496.695496,411.320038 496.695496,390.250244 496.695496,369.025543 
	C448.773529,369.025543 401.155670,369.025543 353.184692,369.025543 
	C353.766113,367.781525 354.122833,366.733643 354.700134,365.826080 
	C362.906433,352.925262 371.100861,340.016541 379.380249,327.162567 
	C396.381683,300.767395 413.381042,274.370636 430.476379,248.036285 
	C450.381073,217.374268 470.361389,186.761230 490.370117,156.166962 
	C494.805328,149.385330 497.651978,142.586136 497.227661,133.950150 
	C496.435394,117.825546 497.005920,101.634270 496.989746,85.470757 
	C496.988312,84.037506 496.843109,82.604401 496.771088,81.288078 
	C422.006561,81.288078 347.611450,81.288078 273.288147,81.288078 
	C273.288147,102.646935 273.288147,123.716484 273.288147,145.000000 
	C290.883575,145.000000 308.191803,145.000000 326.500000,145.000000 
z"/>
<path fill="#22B14C" opacity="0.000000" stroke="none" 
	d="
M72.531342,1.000000 
	C73.000000,3.474842 73.000000,5.949684 73.000000,8.887487 
	C67.682831,8.887487 62.606293,8.887487 57.072021,8.887487 
	C57.072021,11.734606 57.072021,14.131039 57.072021,16.992418 
	C51.544487,16.992418 46.468639,16.992418 41.122791,16.992418 
	C41.122791,19.735432 41.122791,22.013489 41.122791,24.765244 
	C38.456627,24.902546 36.048901,25.026541 33.216774,25.172390 
	C33.094303,27.609413 32.973259,30.017927 32.835835,32.752449 
	C30.324911,32.901791 27.915838,33.045078 25.050543,33.215500 
	C25.050543,35.746017 25.050543,38.148605 25.050543,40.836685 
	C22.309881,40.836685 20.029030,40.836685 17.268515,40.836685 
	C17.268515,46.168732 17.268515,51.234619 17.268515,56.754219 
	C14.423556,56.902458 12.021507,57.027618 9.151025,57.177189 
	C9.151025,62.291733 9.151025,67.362854 9.151025,73.000000 
	C6.430125,73.000000 4.168721,73.000000 1.453658,73.000000 
	C1.000000,49.073135 1.000000,25.146271 1.000000,1.000000 
	C24.687109,1.000000 48.374897,1.000000 72.531342,1.000000 
z"/>
<path fill="#22B14C" opacity="0.000000" stroke="none" 
	d="
M513.000000,72.531342 
	C510.525177,73.000000 508.050323,73.000000 505.112549,73.000000 
	C505.112549,67.684181 505.112549,62.608173 505.112549,57.072041 
	C502.265411,57.072041 499.868988,57.072041 497.007599,57.072041 
	C497.007599,51.546837 497.007599,46.469822 497.007599,41.122814 
	C494.264862,41.122814 491.987213,41.122814 489.234741,41.122814 
	C489.097473,38.456650 488.973511,36.048927 488.827698,33.216774 
	C486.390594,33.094303 483.982086,32.973267 481.247528,32.835846 
	C481.098206,30.324928 480.954956,27.915861 480.784546,25.050568 
	C478.253998,25.050568 475.851410,25.050568 473.163330,25.050568 
	C473.163330,22.309896 473.163330,20.029039 473.163330,17.268501 
	C467.831268,17.268501 462.765381,17.268501 457.245758,17.268501 
	C457.097717,14.427566 456.972351,12.021475 456.822754,9.151015 
	C451.707001,9.151015 446.635010,9.151015 441.000000,9.151015 
	C441.000000,6.430124 441.000000,4.168721 441.000000,1.453659 
	C464.926849,1.000000 488.853729,1.000000 513.000000,1.000000 
	C513.000000,24.687109 513.000000,48.374897 513.000000,72.531342 
z"/>
<path fill="#22B14C" opacity="0.000000" stroke="none" 
	d="
M1.000000,441.468658 
	C3.474843,441.000000 5.949686,441.000000 8.887492,441.000000 
	C8.887492,446.315857 8.887492,451.391846 8.887492,456.927979 
	C11.729090,456.927979 14.137929,456.927979 16.992420,456.927979 
	C16.992420,462.455505 16.992420,467.531403 16.992420,472.877228 
	C19.735168,472.877228 22.012810,472.877228 24.765257,472.877228 
	C24.902552,475.543396 25.026537,477.951111 25.172377,480.783264 
	C27.609917,480.905731 30.019190,481.026794 32.752430,481.164154 
	C32.901787,483.675110 33.045078,486.084198 33.215511,488.949463 
	C35.746048,488.949463 38.148636,488.949463 40.836708,488.949463 
	C40.836708,491.682831 40.836708,493.968719 40.836708,496.731506 
	C46.168751,496.731506 51.234638,496.731506 56.754223,496.731506 
	C56.902454,499.576447 57.027611,501.978485 57.177177,504.848999 
	C62.291756,504.848999 67.362869,504.848999 73.000000,504.848999 
	C73.000000,507.569885 73.000000,509.831268 73.000000,512.546326 
	C49.073139,513.000000 25.146275,513.000000 1.000000,513.000000 
	C1.000000,489.312897 1.000000,465.625092 1.000000,441.468658 
z"/>
<path fill="#22B14C" opacity="0.000000" stroke="none" 
	d="
M505.983643,441.166626 
	C507.711548,441.118744 509.439484,441.070892 511.709656,441.283936 
	C512.454529,441.773468 512.703857,441.925201 513.000000,442.000000 
	C513.000000,465.020905 513.000000,488.041779 512.780640,511.639252 
	C512.287659,512.415283 512.100586,512.676697 512.000000,513.000000 
	C488.979095,513.000000 465.958221,513.000000 442.383545,512.794983 
	C441.670258,512.327881 441.449188,512.137024 441.166626,512.017334 
	C441.118744,510.289734 441.070892,508.562103 441.270630,506.315979 
	C441.737183,505.634277 441.892334,505.424011 441.983643,505.166626 
	C446.787933,505.166626 451.592224,505.166626 456.726349,505.166626 
	C456.896759,502.329437 457.041290,499.923401 457.213989,497.048401 
	C462.404602,497.048401 467.486084,497.048401 472.845398,497.048401 
	C472.845398,494.296448 472.845398,492.016296 472.845398,489.262756 
	C475.517242,489.110291 477.927948,488.972748 480.788605,488.809540 
	C480.907166,486.406555 481.026154,483.994598 481.161713,481.247070 
	C483.669006,481.099274 486.082886,480.957001 488.952576,480.787842 
	C488.952576,478.255951 488.952576,475.838593 488.952576,473.158264 
	C491.702484,473.158264 493.987976,473.158264 496.757782,473.158264 
	C496.757782,467.817566 496.757782,462.739838 496.757782,457.248993 
	C499.612549,457.098633 502.017670,456.971954 505.022552,456.813660 
	C505.022552,452.125305 505.022552,447.516663 505.270386,442.352753 
	C505.737183,441.634277 505.892334,441.424011 505.983643,441.166626 
z"/>
<path fill="#22B14C" opacity="0.000000" stroke="none" 
	d="
M513.000000,441.750000 
	C512.703857,441.925201 512.454529,441.773468 512.136597,441.355743 
	C512.180908,441.118622 512.340576,441.070648 512.750122,441.011322 
	C513.000000,441.000000 513.000000,441.500000 513.000000,441.750000 
z"/>
<path fill="#22B14C" opacity="0.000000" stroke="none" 
	d="
M441.094727,512.257874 
	C441.449188,512.137024 441.670258,512.327881 441.914917,512.794983 
	C442.000000,513.000000 441.500000,513.000000 441.250000,513.000000 
	C441.007599,512.832825 441.015228,512.665588 441.094727,512.257874 
z"/>
<path fill="#22B14C" opacity="0.000000" stroke="none" 
	d="
M512.500000,513.000000 
	C512.100586,512.676697 512.287659,512.415283 512.780640,512.107910 
	C513.000000,512.333313 513.000000,512.666687 512.500000,513.000000 
z"/>
<path fill="#000000" opacity="1.000000" stroke="none" 
	d="
M61.000000,81.000000 
	C121.140091,81.000000 180.780182,81.000000 240.710007,81.000000 
	C240.710007,102.281387 240.710007,123.352554 240.710007,144.821289 
	C187.714508,144.821289 134.644669,144.821289 81.287949,144.821289 
	C81.287949,171.619064 81.287949,198.023087 81.287949,224.825409 
	C123.622231,224.825409 166.026398,224.825409 208.714600,224.825409 
	C208.714600,246.290710 208.714600,267.361816 208.714600,288.831421 
	C166.371704,288.831421 123.967529,288.831421 81.282387,288.831421 
	C81.282387,315.630341 81.282387,342.034302 81.282387,368.835571 
	C134.299820,368.835571 187.369675,368.835571 240.719177,368.835571 
	C240.719177,390.300018 240.719177,411.371094 240.719177,432.721680 
	C166.363235,432.721680 91.962494,432.721680 17.280708,432.721680 
	C17.280708,315.703674 17.280708,198.638916 17.280708,81.000000 
	C31.641325,81.000000 46.070663,81.000000 61.000000,81.000000 
z"/>
<path fill="#000000" opacity="1.000000" stroke="none" 
	d="
M326.000000,145.000000 
	C308.191803,145.000000 290.883575,145.000000 273.288147,145.000000 
	C273.288147,123.716484 273.288147,102.646935 273.288147,81.288078 
	C347.611450,81.288078 422.006561,81.288078 496.771088,81.288078 
	C496.843109,82.604401 496.988312,84.037506 496.989746,85.470757 
	C497.005920,101.634270 496.435394,117.825546 497.227661,133.950150 
	C497.651978,142.586136 494.805328,149.385330 490.370117,156.166962 
	C470.361389,186.761230 450.381073,217.374268 430.476379,248.036285 
	C413.381042,274.370636 396.381683,300.767395 379.380249,327.162567 
	C371.100861,340.016541 362.906433,352.925262 354.700134,365.826080 
	C354.122833,366.733643 353.766113,367.781525 353.184692,369.025543 
	C401.155670,369.025543 448.773529,369.025543 496.695496,369.025543 
	C496.695496,390.250244 496.695496,411.320038 496.695496,432.695557 
	C422.421448,432.695557 348.026276,432.695557 273.228027,432.695557 
	C273.158203,431.434143 273.011536,430.004913 273.010254,428.575562 
	C272.994507,410.912323 273.423645,393.233917 272.792145,375.593292 
	C272.538391,368.504974 276.571777,363.947449 279.731995,358.951050 
	C300.381195,326.303711 321.327332,293.843750 342.246887,261.367950 
	C356.374725,239.435654 370.637543,217.590347 384.802979,195.682190 
	C395.208191,179.589539 405.559814,163.462219 415.901062,147.328384 
	C416.300171,146.705734 416.342560,145.854431 416.581879,145.000000 
	C386.470398,145.000000 356.485199,145.000000 326.000000,145.000000 
z"/>
<path fill="#22B14C" opacity="0.000000" stroke="none" 
	d="
M505.727112,441.134521 
	C505.892334,441.424011 505.737183,441.634277 505.342438,441.889160 
	C505.267944,441.688049 505.369232,441.395233 505.727112,441.134521 
z"/>
<path fill="#22B14C" opacity="0.000000" stroke="none" 
	d="
M441.727051,505.134521 
	C441.892334,505.424011 441.737183,505.634277 441.342407,505.889160 
	C441.267914,505.688049 441.369202,505.395233 441.727051,505.134521 
z"/>
</svg>