<?xml version="1.0" standalone="no"?>
<!DOCTYPE svg PUBLIC "-//W3C//DTD SVG 20010904//EN"
 "http://www.w3.org/TR/2001/REC-SVG-20010904/DTD/svg10.dtd">
<svg version="1.0" xmlns="http://www.w3.org/2000/svg"
 width="700.000000pt" height="700.000000pt" viewBox="0 0 700.000000 700.000000"
 preserveAspectRatio="xMidYMid meet">
<metadata>
Created by potrace 1.14, written by Peter Selinger 2001-2017
</metadata>
<g transform="translate(0.000000,700.000000) scale(0.100000,-0.100000)"
fill="#000000" stroke="none">
<path d="M240 3485 l0 -2405 1525 0 1525 0 0 440 0 440 -1090 0 -1090 0 0 545
0 545 870 0 870 0 0 440 0 440 -870 0 -870 0 0 545 0 545 1090 0 1090 0 0 435
0 435 -1525 0 -1525 0 0 -2405z"/>
<path d="M3740 5455 l0 -435 975 0 c832 0 975 -2 975 -14 0 -14 -188 -308
-892 -1396 -211 -327 -510 -791 -662 -1030 -153 -239 -303 -473 -332 -519 -30
-46 -59 -101 -64 -122 -6 -23 -9 -194 -8 -445 l3 -409 1528 -3 1527 -2 0 435
0 435 -980 0 c-557 0 -980 4 -980 9 0 17 716 1131 1525 2370 202 310 379 587
393 615 47 92 49 123 44 549 l-5 397 -1523 0 -1524 0 0 -435z"/>
</g>
</svg>
